<svg width="20" height="20" viewBox="0 0 20 20" fill="none" xmlns="http://www.w3.org/2000/svg">
<path d="M14.9994 0.00416133L12.4058 0C9.49209 0 7.60911 1.9319 7.60911 4.92203V7.19141H5.00143C4.7761 7.19141 4.59363 7.37409 4.59363 7.59943V10.8875C4.59363 11.1128 4.77631 11.2953 5.00143 11.2953H7.60911V19.5922C7.60911 19.8175 7.79158 20 8.01691 20H11.4192C11.6445 20 11.827 19.8173 11.827 19.5922V11.2953H14.876C15.1013 11.2953 15.2838 11.1128 15.2838 10.8875L15.285 7.59943C15.285 7.49123 15.242 7.38762 15.1656 7.31105C15.0892 7.23448 14.9852 7.19141 14.877 7.19141H11.827V5.26763C11.827 4.34298 12.0473 3.87358 13.2518 3.87358L14.9989 3.87295C15.2241 3.87295 15.4065 3.69027 15.4065 3.46514V0.411972C15.4065 0.187052 15.2243 0.00457747 14.9994 0.00416133Z" fill="#66C05D"/>
</svg>
