<svg width="140" height="108" viewBox="0 0 140 108" fill="none" xmlns="http://www.w3.org/2000/svg">
<path d="M122.909 0.72876H17.1198C7.67639 0.72876 0 8.40515 0 17.8486V90.1515C0 99.5949 7.67639 107.271 17.1198 107.271H122.88C132.324 107.271 140 99.5949 140 90.1515V17.8775C140.029 8.43412 132.353 0.72876 122.909 0.72876ZM132.208 90.1515C132.208 95.2787 128.036 99.4501 122.909 99.4501H17.1198C11.9926 99.4501 7.82123 95.2787 7.82123 90.1515V17.8775C7.82123 12.7503 11.9926 8.57896 17.1198 8.57896H122.88C128.007 8.57896 132.179 12.7503 132.179 17.8775V90.1515H132.208Z" fill="white" fill-opacity="0.4"/>
<path d="M88.2929 53.102L122.533 22.3965C124.126 20.9481 124.271 18.4858 122.822 16.8637C121.374 15.2704 118.912 15.1256 117.289 16.574L70.0724 58.9535L60.8607 50.7267C60.8317 50.6977 60.8028 50.6688 60.8028 50.6398C60.6 50.437 60.3972 50.2632 60.1655 50.0894L22.6815 16.545C21.0593 15.0966 18.5971 15.2415 17.1487 16.8637C15.7003 18.4858 15.8452 20.9481 17.4674 22.3965L52.1125 53.3627L17.6122 85.6615C16.0479 87.1389 15.961 89.6011 17.4384 91.1943C18.2205 92.0054 19.2633 92.4399 20.3062 92.4399C21.2621 92.4399 22.218 92.0923 22.9712 91.3971L57.9929 58.6348L67.4943 67.1223C68.2474 67.7886 69.1744 68.1072 70.1013 68.1072C71.0283 68.1072 71.9842 67.7596 72.7084 67.0933L82.4705 58.3451L117.289 91.426C118.043 92.1502 119.027 92.4978 119.983 92.4978C121.026 92.4978 122.04 92.0923 122.822 91.2812C124.3 89.717 124.242 87.2258 122.677 85.7484L88.2929 53.102Z" fill="white" fill-opacity="0.4"/>
</svg>
